<svg width="512" height="512" viewBox="0 0 512 512" fill="none" xmlns="http://www.w3.org/2000/svg">
<g filter="url(#filter0_d)">
<path fill-rule="evenodd" clip-rule="evenodd" d="M388.934 387.888C316.217 460.043 115.616 542.102 42.884 469.932C-29.8334 397.777 52.8501 198.728 125.582 126.573C198.299 54.4035 292.581 77.8425 365.313 150.012C438.03 222.167 461.652 315.733 388.934 387.888Z" fill="#E34361" stroke="#FAF7F7" stroke-opacity="0.7" stroke-width="2" stroke-linejoin="round"/>
<path fill-rule="evenodd" clip-rule="evenodd" d="M400.769 192.641C418.349 243.53 410.309 296.359 365.314 341.006C292.582 413.161 91.9959 495.219 19.2638 423.05C18.8963 422.685 18.6023 422.277 18.2349 421.898C22.3507 440.859 30.2148 457.355 42.8856 469.928C115.618 542.097 316.204 460.054 388.936 387.884C447.998 329.279 443.5 256.555 400.769 192.641Z" fill="#BC395B" stroke="#FAF7F7" stroke-opacity="0.7" stroke-width="2" stroke-linejoin="round"/>
<path fill-rule="evenodd" clip-rule="evenodd" d="M225.348 97.4922C194.891 97.4922 164.184 108.884 135.961 136.873C100.183 172.389 63.1264 238.929 43.7528 302.478C21.792 374.531 25.2611 431.823 53.2779 459.623C118.44 524.266 311.383 444.206 378.544 377.579C450.541 306.124 413.543 218.494 354.907 160.327C319.261 124.942 272.621 97.4922 225.348 97.4922ZM125.598 512C88.1887 512 55.1888 502.767 32.4931 480.247C-3.97581 444.075 -9.95842 377.944 15.6183 294.033C36.2708 226.298 76.2823 154.857 115.177 116.249C187.144 44.8382 289.392 54.0709 375.707 139.703C462.006 225.335 471.281 326.807 399.328 398.203C345.456 451.659 221.188 512 125.598 512Z" fill="#454849" stroke="#FAF7F7" stroke-opacity="0.7" stroke-width="2" stroke-linejoin="round"/>
<path fill-rule="evenodd" clip-rule="evenodd" d="M197.178 293.474C203.675 287.027 214.229 287.027 220.726 293.474C227.223 299.921 227.223 310.394 220.726 316.84C214.229 323.287 190.225 336.648 183.728 330.186C177.217 323.739 190.681 299.921 197.178 293.474Z" fill="#454849" stroke="#FAF7F7" stroke-opacity="0.7" stroke-width="2" stroke-linejoin="round"/>
<path fill-rule="evenodd" clip-rule="evenodd" d="M177.427 182.634C183.924 176.187 194.478 176.187 200.975 182.634C207.472 189.081 207.472 199.553 200.975 206C194.478 212.447 170.474 225.808 163.977 219.346C157.465 212.899 170.93 189.081 177.427 182.634Z" fill="#454849" stroke="#FAF7F7" stroke-opacity="0.7" stroke-width="2" stroke-linejoin="round"/>
<path fill-rule="evenodd" clip-rule="evenodd" d="M112.128 291.695C118.625 285.248 129.179 285.248 135.676 291.695C142.173 298.142 142.173 308.614 135.676 315.061C129.179 321.508 105.175 334.868 98.678 328.407C92.1662 321.96 105.631 298.142 112.128 291.695Z" fill="#454849" stroke="#FAF7F7" stroke-opacity="0.7" stroke-width="2" stroke-linejoin="round"/>
<path fill-rule="evenodd" clip-rule="evenodd" d="M319.098 346.652C325.595 340.205 325.595 329.733 319.098 323.286C312.601 316.839 302.047 316.839 295.55 323.286C289.053 329.733 275.588 353.551 282.1 359.998C288.597 366.459 312.601 353.099 319.098 346.652Z" fill="#454849" stroke="#FAF7F7" stroke-opacity="0.7" stroke-width="2" stroke-linejoin="round"/>
<path fill-rule="evenodd" clip-rule="evenodd" d="M209.187 411.446C215.684 404.999 215.684 394.526 209.187 388.08C202.69 381.633 192.136 381.633 185.639 388.08C179.142 394.526 165.677 418.345 172.189 424.791C178.686 431.253 202.69 417.892 209.187 411.446Z" fill="#454849" stroke="#FAF7F7" stroke-opacity="0.7" stroke-width="2" stroke-linejoin="round"/>
<path fill-rule="evenodd" clip-rule="evenodd" d="M367.003 232.511C367.003 232.511 306.457 259.451 262.8 251.72C262.8 251.72 260.242 201.721 304.458 170.449C304.458 170.449 237.076 143.145 215.16 58.1111C215.16 58.1111 260.992 52.1748 309.823 96.6754C309.823 96.6754 344.704 52.1748 330.755 14.6023C330.755 14.6023 404.119 47.8429 388.361 127.13C388.361 127.13 456.581 131.01 497.298 171.689C497.298 171.689 483.863 192.926 442.661 204.755C442.661 204.755 472.956 249.241 477.586 292.108C477.586 292.108 429.549 294.573 367.003 232.511Z" fill="#3BB777" stroke="#FAF7F7" stroke-opacity="0.7" stroke-width="2" stroke-linejoin="round"/>
<path fill-rule="evenodd" clip-rule="evenodd" d="M367.003 232.511C367.003 232.511 306.457 259.451 262.8 251.72C262.8 251.72 260.242 201.721 304.458 170.449C304.458 170.449 237.076 143.145 215.16 58.1111C215.16 58.1111 260.992 52.1748 309.823 96.6754C309.823 96.6754 344.704 52.1748 330.755 14.6023C330.755 14.6023 404.119 47.8429 388.361 127.13C388.361 127.13 456.581 131.01 497.298 171.689C497.298 171.689 483.863 192.926 442.661 204.755C442.661 204.755 472.956 249.241 477.586 292.108C477.586 292.108 429.549 294.573 367.003 232.511Z" fill="#229857" stroke="#FAF7F7" stroke-opacity="0.7" stroke-width="2" stroke-linejoin="round"/>
<path fill-rule="evenodd" clip-rule="evenodd" d="M468.237 255.053C457.727 226.947 442.66 204.747 442.66 204.747C483.863 192.933 497.298 171.696 497.298 171.696C456.581 131.017 388.361 127.137 388.361 127.137C404.119 47.8501 330.755 14.595 330.755 14.595C344.704 52.1674 309.823 96.6681 309.823 96.6681C272.413 62.5816 236.944 58.1184 222.318 57.885C221.804 63.1796 220.76 67.9491 219.481 72.4414C244.779 146.215 304.458 170.457 304.458 170.457C284.952 184.255 274.559 201.684 269.018 216.882C314.497 224.292 376.646 196.681 376.646 196.681C414.629 234.356 447.394 249.19 468.237 255.053Z" fill="#3BB777" stroke="#FAF7F7" stroke-opacity="0.7" stroke-width="2" stroke-linejoin="round"/>
<path fill-rule="evenodd" clip-rule="evenodd" d="M366.995 217.922C370.816 217.922 374.579 219.41 377.402 222.196C411.945 256.472 441.461 269.512 459.203 274.485C450.31 242.31 430.716 213.27 430.481 212.905C427.85 209.054 427.232 204.168 428.834 199.778C430.437 195.388 434.053 192.033 438.58 190.735C457.057 185.426 468.949 178.235 476.049 172.605C439.389 144.98 388.088 141.727 387.515 141.684C383.267 141.45 379.342 139.394 376.74 136.068C374.138 132.728 373.124 128.44 373.947 124.312C383.223 77.5799 357.014 49.7798 339.316 36.7695C332.025 63.1548 324.308 99.2249 324.205 99.6917C323.117 104.811 319.339 108.954 314.312 110.558C309.3 112.162 303.758 110.937 299.892 107.407C274.801 84.5373 251.091 76.4714 235.524 73.7147C259.072 135.149 307.83 156.05 310.079 156.984C315.003 159.026 318.458 163.562 319.045 168.827C319.633 174.093 317.34 179.271 312.989 182.348C288.339 199.763 280.754 224.019 278.461 238.546H280.063C316.841 238.561 360.497 219.425 360.997 219.191C362.923 218.331 364.966 217.922 366.995 217.922ZM477.033 306.705C468.508 306.705 421.896 304.036 363.672 249.632C344.049 257.187 297.526 272.662 260.219 266.084C253.487 264.888 248.474 259.243 248.121 252.461C248.019 250.405 246.269 207.567 279.093 173.101C255.368 157.611 216.944 123.933 200.922 61.7254C199.878 57.6852 200.628 53.3824 202.98 49.9257C205.347 46.4689 209.08 44.1935 213.255 43.6538C215.136 43.3476 254.854 38.7531 300.598 70.5789C305.037 51.3842 311.534 24.8968 316.87 9.77153C318.252 5.90635 321.192 2.78503 324.984 1.18062C328.791 -0.438382 333.098 -0.394625 336.861 1.32647C363.717 13.4909 409.52 51.9239 404.919 114.379C429.025 118.142 475.563 129.3 507.725 161.403C512.547 166.217 513.385 173.699 509.754 179.431C508.313 181.721 496.348 199.384 464.554 212.57C474.505 230.349 488.954 260.483 492.203 290.544C492.629 294.541 491.395 298.508 488.778 301.556C486.147 304.619 482.384 306.457 478.356 306.676C478.18 306.676 477.739 306.705 477.033 306.705Z" fill="#454849" stroke="#FAF7F7" stroke-opacity="0.7" stroke-width="2" stroke-linejoin="round"/>
<path fill-rule="evenodd" clip-rule="evenodd" d="M365.235 164.665C362.045 164.665 358.841 163.644 356.136 161.529C349.771 156.54 348.669 147.366 353.696 141.051C359.546 133.699 412.008 69.0853 454.269 64.9867C462.471 64.2283 469.556 70.0625 470.335 78.07C471.129 86.0921 465.22 93.239 457.135 94.012C434.542 96.2145 395.854 135.114 376.789 159.108C373.878 162.754 369.571 164.665 365.235 164.665Z" fill="#454849" stroke="#FAF7F7" stroke-opacity="0.7" stroke-width="2" stroke-linejoin="round"/>
<path fill-rule="evenodd" clip-rule="evenodd" d="M96.945 250.227C95.725 250.227 94.4755 250.022 93.2555 249.6C87.5228 247.572 84.5241 241.329 86.5526 235.627C87.17 233.891 102.09 192.789 128.475 170.079C133.091 166.112 140.043 166.622 144.027 171.173C148.025 175.738 147.525 182.637 142.924 186.604C120.875 205.58 107.47 242.584 107.337 242.948C105.735 247.441 101.487 250.227 96.945 250.227Z" fill="#FEFEFE" stroke="#FAF7F7" stroke-opacity="0.7" stroke-width="2" stroke-linejoin="round"/>
<path fill-rule="evenodd" clip-rule="evenodd" d="M168.833 142.443C174.904 147.548 175.669 156.577 170.509 162.601C165.364 168.639 156.266 169.383 150.195 164.278C144.124 159.173 143.36 150.145 148.519 144.106C153.664 138.082 162.763 137.338 168.833 142.443Z" fill="#FEFEFE" stroke="#FAF7F7" stroke-opacity="0.7" stroke-width="2" stroke-linejoin="round"/>
</g>
<defs>
<filter id="filter0_d" x="-4.99908" y="-1" width="521.999" height="522" filterUnits="userSpaceOnUse" color-interpolation-filters="sRGB">
<feFlood flood-opacity="0" result="BackgroundImageFix"/>
<feColorMatrix in="SourceAlpha" type="matrix" values="0 0 0 0 0 0 0 0 0 0 0 0 0 0 0 0 0 0 127 0"/>
<feOffset dy="4"/>
<feGaussianBlur stdDeviation="2"/>
<feColorMatrix type="matrix" values="0 0 0 0 0 0 0 0 0 0 0 0 0 0 0 0 0 0 0.25 0"/>
<feBlend mode="normal" in2="BackgroundImageFix" result="effect1_dropShadow"/>
<feBlend mode="normal" in="SourceGraphic" in2="effect1_dropShadow" result="shape"/>
</filter>
</defs>
</svg>
